<svg width="855" height="772" viewBox="0 0 855 772" fill="none" xmlns="http://www.w3.org/2000/svg">
<g clip-path="url(#clip0_4798_10968)">
<path d="M712.562 366.852L728.329 357.746C732.192 355.763 738.056 355.773 741.9 357.773L1087.76 557.453L1093.04 541.25L761.169 350.242L892.428 274.465L901.33 279.634C914.262 287.101 935.236 287.101 948.168 279.634C948.251 279.588 948.325 279.542 948.399 279.495L1007.83 244.988L991.652 235.65L932.225 270.157H932.216C932.142 270.194 932.067 270.25 931.984 270.296C927.991 272.603 921.497 272.603 917.505 270.296L858.198 235.863C858.124 235.817 858.04 235.771 857.966 235.724C845.09 228.285 824.237 228.258 811.295 235.641H811.277L751.85 270.139C751.775 270.185 751.701 270.232 751.618 270.278C747.635 272.575 741.15 272.584 737.157 270.287L682.529 238.753C682.455 238.707 682.371 238.661 682.297 238.614C669.365 231.148 648.392 231.148 635.459 238.614C631.467 240.921 624.982 240.921 620.989 238.614C620.906 238.568 620.832 238.522 620.758 238.476C607.853 231.176 587.241 231.204 574.374 238.54L574.346 238.522L559.459 247.119C550.834 244.849 540.857 244.849 532.233 247.119L517.754 238.763C517.679 238.716 517.596 238.67 517.522 238.624C517.485 238.605 517.457 238.587 517.42 238.568L517.337 238.522C504.432 231.185 483.69 231.194 470.805 238.559L452.194 249.305C452.12 249.351 452.055 249.397 451.98 249.434C447.988 251.741 441.494 251.741 437.501 249.434L5.50269 0L0 15.4982L421.327 258.745L421.456 258.67L421.317 258.754C434.092 266.128 454.676 266.202 467.646 259.022L503.228 279.56L501.171 280.746L269.864 414.291L4.78012 567.337L26.9484 573.21L286.038 423.629L475.9 533.219L85.5234 758.169L93.87 772L557.365 504.946L557.541 505.048L576.152 494.302L594.763 505.048L613.226 515.701L613.337 515.766L628.669 524.622H628.687C641.509 532.015 662.232 532.052 675.145 524.742L690.542 515.877C694.534 513.58 701.028 513.58 705.021 515.877C705.104 515.923 705.179 515.97 705.253 516.016L1010.56 693.296L1023.98 682.355L721.427 506.678C721.353 506.623 721.27 506.576 721.196 506.53C708.273 499.073 687.327 499.064 674.395 506.512C674.386 506.512 674.376 506.521 674.367 506.53L674.321 506.558L614.486 472.013L714.22 414.551C727.078 407.13 727.171 395.162 714.47 387.686L695.461 376.718L712.432 366.917L712.543 366.852H712.562ZM575.624 256.438L590.354 247.934H590.372C594.282 245.692 600.581 245.646 604.583 247.804C604.602 247.823 604.731 247.906 604.796 247.943C617.728 255.41 638.665 255.391 651.597 247.924L651.625 247.943C655.617 245.636 662.111 245.636 666.104 247.943C666.187 247.989 666.261 248.036 666.335 248.082H666.345L705.345 270.593L608.511 326.499L590.354 316.013H590.372C586.463 313.743 586.389 310.112 590.122 307.796C590.15 307.787 590.289 307.712 590.363 307.675C603.24 300.237 603.258 288.231 590.493 280.755L590.335 280.662C590.335 280.662 590.335 280.662 590.326 280.662L575.606 272.168C579.543 267.193 579.543 261.431 575.606 256.456L575.624 256.438ZM537.995 259.764C542.33 257.262 549.352 257.262 553.688 259.764C558.023 262.265 558.023 266.322 553.688 268.823C549.352 271.325 542.33 271.325 537.995 268.823C533.659 266.322 533.659 262.265 537.995 259.764ZM471.138 257.012L486.849 247.943H486.859C490.851 245.646 497.345 245.646 501.338 247.943C501.421 247.989 501.496 248.036 501.57 248.082L516.04 256.429C512.103 261.403 512.103 267.165 516.04 272.149H516.03L506.683 277.541L471.11 257.003L471.138 257.012ZM670.856 508.577L658.86 515.507C655.006 517.508 649.151 517.517 645.288 515.534L629.521 506.428L629.41 506.363L610.91 495.682L592.197 484.881L592.336 484.964L610.947 474.218L610.827 474.144L611.021 474.033L670.865 508.577H670.856ZM698.342 397.033C701.983 399.303 701.945 402.823 698.268 405.083L479.392 531.209L289.549 421.61L517.503 290L532.242 281.487C540.867 283.756 550.844 283.756 559.459 281.487L574.346 290.084C578.163 292.39 578.126 296.059 574.198 298.328C574.114 298.375 574.031 298.421 573.957 298.458C561.321 305.897 561.367 317.791 574.031 325.221L574.003 325.239L698.351 397.024L698.342 397.033ZM711.728 348.658L696.396 357.514L696.285 357.579L679.314 367.38L612.003 328.519L708.838 272.612L720.955 279.606H720.946C733.878 287.082 754.851 287.082 767.783 279.606C767.867 279.56 767.941 279.514 768.015 279.467L827.285 245.053H827.303C831.296 242.755 837.79 242.755 841.782 245.062C841.866 245.108 841.94 245.155 842.014 245.201L888.945 272.446L757.639 348.25C744.698 341.238 724.373 341.367 711.728 348.667H711.71L711.728 348.658Z" fill="url(#paint0_radial_4798_10968)"/>
<g style="mix-blend-mode:multiply">
<path d="M539.452 320.737L525.742 316.105L368.285 419.553L482.415 494.506L496.126 493.357L667.302 394.541L539.452 320.737Z" fill="#DFEAE1"/>
</g>
<path d="M525.74 321.886L357.686 413.124L354.573 414.921V420.711L482.414 494.506L653.59 395.69V389.909L650.996 388.408L525.74 321.886Z" fill="#48B54E" stroke="black" stroke-linejoin="round"/>
<path d="M525.74 316.105L354.573 414.921L482.414 488.725L653.59 389.909L525.74 316.105Z" fill="white" stroke="black" stroke-linejoin="round"/>
<g style="mix-blend-mode:multiply">
<path d="M617.77 177.696H576.936V197.512H617.77V177.696Z" fill="#DFEAE1"/>
</g>
<g style="mix-blend-mode:multiply">
<path d="M693.277 181.346L651.433 157.112L611.849 217.318L661.289 217.327L699.679 194.946L693.277 181.346Z" fill="#DFEAE1"/>
</g>
<path d="M617.761 173.407L576.936 196.983V152.091L617.761 128.515V173.407Z" fill="black" stroke="black" stroke-linejoin="round"/>
<path d="M611.683 92.9984L568.208 67.8935L524.733 42.7979L481.258 67.8935L437.783 92.9984L481.258 118.094H568.208L611.683 143.199L655.158 118.094L611.683 92.9984Z" fill="#F4F9F5"/>
<path d="M569.776 92.5445L482.863 92.3777L457.396 77.6761L523.549 39.4814L635.919 102.938L611.852 116.834L569.776 92.5445Z" fill="#48B54E" stroke="black" stroke-linejoin="round"/>
<path d="M481.256 192.167L437.901 167.071V92.998L481.256 118.094V192.167Z" fill="#F4F9F5" stroke="black" stroke-linejoin="round"/>
<path d="M462.637 142.151L456.828 138.825V128.82L462.637 132.155V142.151Z" fill="#F4F9F5" stroke="black" stroke-linejoin="round"/>
<path d="M462.637 124.995L456.828 121.66V111.664L462.637 114.99V124.995Z" fill="#F4F9F5" stroke="black" stroke-linejoin="round"/>
<path d="M612.109 216.845L655.158 192.166V118.093L612.109 142.772V216.845Z" fill="#F4F9F5" stroke="black" stroke-linejoin="round"/>
<path d="M618.642 201.856L648.628 184.672V133.082L618.642 150.266V201.856Z" fill="#F4F9F5" stroke="black" stroke-linejoin="round"/>
<path d="M618.642 201.856L648.628 184.672V157.112L635.919 162.189L629.545 177.696L618.642 181.031V201.856Z" fill="black"/>
<path d="M568.209 118.093H481.259V192.166H568.209V118.093Z" fill="#F4F9F5" stroke="black" stroke-linejoin="round"/>
<path d="M568.209 187.274H481.259V192.166H568.209V187.274Z" fill="black"/>
<path d="M612.109 217.058L655.158 192.167V187.275L612.109 212.167V217.058Z" fill="black"/>
<path d="M612.112 217.577C612.019 217.577 611.936 217.549 611.852 217.503C611.695 217.41 611.593 217.234 611.593 217.049V212.157C611.593 211.972 611.695 211.796 611.852 211.703L654.91 186.812C655.068 186.719 655.272 186.719 655.429 186.812C655.587 186.904 655.688 187.08 655.688 187.266V192.157C655.688 192.342 655.587 192.518 655.429 192.611L612.371 217.493C612.288 217.54 612.204 217.567 612.112 217.567V217.577ZM612.63 212.463V216.159L654.642 191.87V188.173L612.63 212.463Z" fill="black"/>
<path d="M481.256 192.166L437.901 167.07V162.17L481.256 187.275V192.166Z" fill="black"/>
<path d="M559.018 125.93H490.457V140.993H559.018V125.93Z" fill="#783551"/>
<path d="M524.733 125.93H490.457V140.993H524.733V125.93Z" fill="#F4F9F5" stroke="black" stroke-linejoin="round"/>
<path d="M507.595 125.93H490.457V140.993H507.595V125.93Z" fill="#F4F9F5" stroke="black" stroke-linejoin="round"/>
<path d="M559.007 125.93H524.731V140.993H559.007V125.93Z" fill="#F4F9F5" stroke="black" stroke-linejoin="round"/>
<path d="M541.869 125.93H524.731V140.993H541.869V125.93Z" fill="#F4F9F5" stroke="black" stroke-linejoin="round"/>
<path d="M559.018 147.126H490.457V162.189H559.018V147.126Z" fill="#783551"/>
<path d="M559.018 168.321H490.457V183.384H559.018V168.321Z" fill="#783551"/>
<path d="M481.258 91.4974L457.395 77.6758L437.783 92.9981L481.258 118.094V91.4974Z" fill="#F4F9F5" stroke="black" stroke-linejoin="round"/>
<path d="M568.209 91.4971H481.259V118.093H568.209V91.4971Z" fill="#F4F9F5" stroke="black" stroke-linejoin="round"/>
<path d="M612.109 142.985L655.158 118.093L635.871 103.049L612.109 116.815V142.985Z" fill="#F4F9F5" stroke="black" stroke-linejoin="round"/>
<path d="M612.108 142.772L568.207 118.093V91.4971L612.108 116.815V142.772Z" fill="#F4F9F5" stroke="black" stroke-linejoin="round"/>
<path d="M568.207 117.88V191.954L576.971 196.938V161.124C576.971 152.768 582.872 149.405 590.153 153.611C597.434 157.817 603.335 167.997 603.335 176.344V212.038L612.099 217.049V142.976L568.207 117.871V117.88Z" fill="#F4F9F5" stroke="black" stroke-linejoin="round"/>
<path d="M453.801 137.964L449.216 135.314V124.846C449.216 124.114 449.503 123.531 449.994 123.244C450.494 122.956 451.133 123.003 451.763 123.364C452.903 124.022 453.792 125.569 453.792 126.884V137.955L453.801 137.964Z" fill="#F4F9F5" stroke="black" stroke-linejoin="round"/>
<path d="M470.253 147.376L465.667 144.726V134.258C465.667 133.527 465.954 132.943 466.445 132.656C466.936 132.369 467.585 132.415 468.215 132.776C469.354 133.434 470.243 134.981 470.243 136.296V147.367L470.253 147.376Z" fill="#F4F9F5" stroke="black" stroke-linejoin="round"/>
<path d="M453.801 120.678L449.216 118.028V107.56C449.216 106.828 449.503 106.245 449.994 105.957C450.494 105.67 451.133 105.717 451.763 106.078C452.903 106.736 453.792 108.283 453.792 109.598V120.668L453.801 120.678Z" fill="#F4F9F5" stroke="black" stroke-linejoin="round"/>
<path d="M470.253 130.09L465.667 127.44V116.972C465.667 116.24 465.954 115.657 466.445 115.37C466.936 115.082 467.585 115.129 468.215 115.49C469.354 116.148 470.243 117.695 470.243 119.01V130.08L470.253 130.09Z" fill="#F4F9F5" stroke="black" stroke-linejoin="round"/>
<path d="M468.408 184.459L451.057 174.51V144.652L468.408 154.592V184.459Z" fill="#F4F9F5" stroke="black" stroke-linejoin="round"/>
<path d="M524.733 147.126H490.457V162.189H524.733V147.126Z" fill="#F4F9F5" stroke="black" stroke-linejoin="round"/>
<path d="M507.595 147.126H490.457V162.189H507.595V147.126Z" fill="#F4F9F5" stroke="black" stroke-linejoin="round"/>
<path d="M559.007 147.126H524.731V162.189H559.007V147.126Z" fill="#F4F9F5" stroke="black" stroke-linejoin="round"/>
<path d="M541.869 147.126H524.731V162.189H541.869V147.126Z" fill="#F4F9F5" stroke="black" stroke-linejoin="round"/>
<path d="M524.733 168.321H490.457V183.384H524.733V168.321Z" fill="#F4F9F5" stroke="black" stroke-linejoin="round"/>
<path d="M507.595 168.321H490.457V183.384H507.595V168.321Z" fill="#F4F9F5" stroke="black" stroke-linejoin="round"/>
<path d="M559.007 168.321H524.731V183.384H559.007V168.321Z" fill="#F4F9F5" stroke="black" stroke-linejoin="round"/>
<path d="M541.869 168.321H524.731V183.384H541.869V168.321Z" fill="#F4F9F5" stroke="black" stroke-linejoin="round"/>
<path d="M633.202 87.4214C639.474 92.8592 641.743 101.956 638.288 107.737C634.823 113.517 626.93 113.786 620.659 108.348C614.387 102.91 612.118 93.8134 615.573 88.0328C619.038 82.2522 626.931 81.9835 633.202 87.4214Z" fill="#F4F9F5" stroke="black" stroke-linejoin="round"/>
<path d="M628.773 106.644C626.818 106.644 624.761 105.81 622.992 104.272C619.222 101.002 617.86 95.4719 619.972 91.9609C620.88 90.4509 622.325 89.4689 624.057 89.2003C626.308 88.839 628.782 89.682 630.875 91.4884C634.646 94.7586 636.008 100.289 633.895 103.8C632.988 105.31 631.542 106.283 629.81 106.561C629.467 106.616 629.125 106.644 628.773 106.644ZM625.095 90.1637C624.798 90.1637 624.502 90.1822 624.215 90.2286C622.77 90.4602 621.612 91.2476 620.861 92.4982C618.999 95.6016 620.259 100.53 623.668 103.494C625.521 105.106 627.698 105.857 629.634 105.542C631.079 105.31 632.237 104.523 632.988 103.272C634.85 100.169 633.59 95.2403 630.181 92.2759C628.606 90.9048 626.79 90.1637 625.086 90.1637H625.095Z" fill="#48B54E"/>
<path d="M627.887 102.678C626.813 102.678 625.692 102.224 624.729 101.391C622.681 99.6211 621.959 96.6104 623.117 94.6928C623.626 93.8498 624.441 93.294 625.405 93.1457C626.637 92.9512 627.999 93.4051 629.138 94.3871C631.176 96.1565 631.908 99.1672 630.75 101.085C630.241 101.928 629.425 102.484 628.462 102.632C628.277 102.66 628.082 102.678 627.887 102.678ZM625.979 94.1277C625.84 94.1277 625.701 94.137 625.562 94.1555C624.895 94.2667 624.349 94.628 623.997 95.2116C623.089 96.7216 623.719 99.1302 625.405 100.594C626.313 101.381 627.369 101.752 628.295 101.594C628.962 101.483 629.509 101.122 629.861 100.538C630.769 99.0283 630.139 96.6197 628.453 95.156C627.684 94.489 626.794 94.1184 625.979 94.1184V94.1277Z" fill="#48B54E"/>
<g style="mix-blend-mode:multiply">
<path d="M495.962 71.3117L490.765 71.1728L516.222 50.4219L524.188 55.0167L495.962 71.3117Z" fill="#DFEAE1"/>
</g>
<g style="mix-blend-mode:multiply">
<path d="M520.861 78.4543L515.664 78.3154L541.121 57.5645L549.079 62.1593L520.861 78.4543Z" fill="#DFEAE1"/>
</g>
<g style="mix-blend-mode:multiply">
<path d="M545.537 85.5588L540.331 85.4198L565.788 64.6689L573.755 69.2638L545.537 85.5588Z" fill="#DFEAE1"/>
</g>
<path d="M515.553 70.9694L507.586 66.3653L535.803 50.0703L543.77 54.6744L515.553 70.9694Z" fill="#F4F9F5" stroke="black" stroke-linejoin="round"/>
<path d="M515.554 70.9688V77.9167L543.771 61.6217V54.6738L515.554 70.9688Z" fill="#F4F9F5" stroke="black" stroke-linejoin="round"/>
<path d="M515.553 70.9693V77.9172L507.586 73.3223V66.3652L515.553 70.9693Z" fill="#F4F9F5" stroke="black" stroke-linejoin="round"/>
<path d="M540.334 78.2033L532.376 73.5992L560.594 57.3135L568.56 61.9083L540.334 78.2033Z" fill="#F4F9F5" stroke="black" stroke-linejoin="round"/>
<path d="M540.331 78.2032V85.1511L568.558 68.8653V61.9082L540.331 78.2032Z" fill="#F4F9F5" stroke="black" stroke-linejoin="round"/>
<path d="M540.334 78.2037V85.1516L532.376 80.5567V73.5996L540.334 78.2037Z" fill="#F4F9F5" stroke="black" stroke-linejoin="round"/>
<path d="M490.764 63.8723L482.797 59.2682L511.014 42.9824L518.981 47.5773L490.764 63.8723Z" fill="#F4F9F5" stroke="black" stroke-linejoin="round"/>
<path d="M490.765 63.8731V70.821L518.982 54.5352V47.5781L490.765 63.8731Z" fill="#F4F9F5" stroke="black" stroke-linejoin="round"/>
<path d="M490.764 63.8727V70.8205L482.797 66.2257V59.2686L490.764 63.8727Z" fill="#F4F9F5" stroke="black" stroke-linejoin="round"/>
<path d="M501.456 96.4346H495.499V112.702H501.456V96.4346Z" fill="#F4F9F5" stroke="black" stroke-linejoin="round"/>
<path d="M518.593 96.4346H512.637V112.702H518.593V96.4346Z" fill="#F4F9F5" stroke="black" stroke-linejoin="round"/>
<path d="M535.73 96.4346H529.773V112.702H535.73V96.4346Z" fill="#F4F9F5" stroke="black" stroke-linejoin="round"/>
<path d="M552.868 96.4346H546.911V112.702H552.868V96.4346Z" fill="#F4F9F5" stroke="black" stroke-linejoin="round"/>
<path d="M627.627 153.305C627.627 155.325 626.21 157.779 624.459 158.789C622.708 159.799 621.291 158.984 621.291 156.964C621.291 154.945 622.708 152.49 624.459 151.48C626.21 150.47 627.627 151.286 627.627 153.305Z" fill="#F4F9F5" stroke="black" stroke-linejoin="round"/>
<path d="M645.533 145.208L629.534 154.444V150.359L645.533 141.123V145.208Z" fill="#F4F9F5" stroke="black" stroke-linejoin="round"/>
<g style="mix-blend-mode:multiply">
<path d="M744.534 678.668L666.449 633.489L627.143 655.157L629.486 679.873H591.912L591.347 701.476L532.291 702.031L531.948 715.149L498.654 695.862V692.128H475.865V697.353H483.452L477.912 700.475H460.969V705.7H477.718L516.607 728.229H509.039V733.454H525.547V733.408L525.621 733.454L542.564 723.903H595.229L595.081 723.986C595.081 723.986 618.981 723.959 604.919 732.083C590.856 740.207 566.947 740.226 566.947 740.226L563.519 742.199L592.2 742.171L623.854 723.894H644.346L682.725 701.735H704.569L742.421 679.863L744.506 678.659L744.534 678.668Z" fill="#DFEAE1"/>
</g>
<path d="M633.222 661.651L528.272 722.236V596.481L633.222 535.896V661.651Z" fill="#F4F9F5" stroke="black" stroke-linejoin="round"/>
<path d="M475.883 691.498L528.27 722.245V596.49L475.883 566.383V691.498Z" fill="#F4F9F5" stroke="black" stroke-linejoin="round"/>
<path d="M668.332 587.541L633.352 607.736L598.474 587.532L633.454 567.337L668.332 587.541Z" fill="#48B54E" stroke="black" stroke-linejoin="round"/>
<path d="M563.493 670.608L528.513 690.804L563.391 711.008L598.371 690.813L563.493 670.608Z" fill="#48B54E" stroke="black" stroke-linejoin="round"/>
<path d="M563.493 670.609V639.168L598.371 659.372V690.814L563.493 670.609Z" fill="#F4F9F5" stroke="black" stroke-linejoin="round"/>
<path d="M633.351 639.177L598.371 659.372L563.493 639.168L598.473 618.973L633.351 639.177Z" fill="#48B54E" stroke="black" stroke-linejoin="round"/>
<path d="M633.352 639.177V607.736L598.474 587.531V618.973L633.352 639.177Z" fill="#F4F9F5" stroke="black" stroke-linejoin="round"/>
<path d="M627.217 570.94L623.058 573.34V546.049L631.367 541.25V568.541L627.217 570.94Z" fill="#F4F9F5" stroke="black" stroke-linejoin="round"/>
<path d="M607.523 577.416L601.899 580.668V558.638L607.523 555.387V577.416Z" fill="#F4F9F5" stroke="black" stroke-linejoin="round"/>
<path d="M618.779 570.922L613.146 574.173V552.135L618.779 548.893V570.922Z" fill="#F4F9F5" stroke="black" stroke-linejoin="round"/>
<path d="M592.241 622.577L588.082 624.977V597.685L596.392 592.887V620.178L592.241 622.577Z" fill="#F4F9F5" stroke="black" stroke-linejoin="round"/>
<path d="M572.546 628.681L566.923 631.932V609.903L572.546 606.651V628.681Z" fill="#F4F9F5" stroke="black" stroke-linejoin="round"/>
<path d="M583.799 622.188L578.167 625.439V603.41L583.799 600.158V622.188Z" fill="#F4F9F5" stroke="black" stroke-linejoin="round"/>
<path d="M557.257 674.213L553.098 676.612V649.321L561.407 644.522V671.814L557.257 674.213Z" fill="#F4F9F5" stroke="black" stroke-linejoin="round"/>
<path d="M537.562 680.03L531.938 683.272V661.243L537.562 657.991V680.03Z" fill="#F4F9F5" stroke="black" stroke-linejoin="round"/>
<path d="M548.819 673.527L543.187 676.779V654.75L548.819 651.498V673.527Z" fill="#F4F9F5" stroke="black" stroke-linejoin="round"/>
<path d="M546.001 621.974C531.938 630.098 531.938 652.128 531.938 652.128L560.073 635.888C560.073 635.888 560.073 613.859 546.01 621.974H546.001Z" fill="#F4F9F5" stroke="black" stroke-linejoin="round"/>
<path d="M546.001 590.904C531.938 599.028 531.938 621.057 531.938 621.057L560.073 604.818C560.073 604.818 560.073 582.788 546.01 590.904H546.001Z" fill="#F4F9F5" stroke="black" stroke-linejoin="round"/>
<path d="M580.985 570.709C566.923 578.834 566.923 600.863 566.923 600.863L595.057 584.623C595.057 584.623 595.057 562.594 580.995 570.709H580.985Z" fill="#F4F9F5" stroke="black" stroke-linejoin="round"/>
<path d="M501.758 648.135C515.821 656.259 515.821 678.289 515.821 678.289L487.687 662.049C487.687 662.049 487.687 640.02 501.749 648.135H501.758Z" fill="#F4F9F5" stroke="black" stroke-linejoin="round"/>
<path d="M501.758 617.065C515.821 625.189 515.821 647.218 515.821 647.218L487.687 630.979C487.687 630.979 487.687 608.95 501.749 617.065H501.758Z" fill="#F4F9F5" stroke="black" stroke-linejoin="round"/>
<path d="M501.758 586.689C515.821 594.813 515.821 616.842 515.821 616.842L487.687 600.603C487.687 600.603 487.687 578.574 501.749 586.689H501.758Z" fill="#F4F9F5" stroke="black" stroke-linejoin="round"/>
<path d="M633.352 607.736V702.059L668.332 681.864V587.541L633.352 607.736ZM636.779 700.076C636.779 700.076 636.779 673.249 650.842 665.125C664.904 657 664.904 683.828 664.904 683.828L636.77 700.067L636.779 700.076Z" fill="#F4F9F5" stroke="black" stroke-linejoin="round"/>
<path d="M563.391 711.008V742.449L566.818 740.476C566.818 740.476 566.818 713.648 580.881 705.523C594.943 697.399 594.943 724.227 594.943 724.227L580.881 732.351L598.371 722.254V690.812L563.391 711.008Z" fill="#F4F9F5" stroke="black" stroke-linejoin="round"/>
<path d="M563.389 711.008V742.449L559.961 740.476C559.961 740.476 559.961 713.648 545.899 705.524C531.836 697.399 531.836 724.227 531.836 724.227L559.97 740.467L528.418 722.245V690.804L563.398 710.999L563.389 711.008Z" fill="#F4F9F5" stroke="black" stroke-linejoin="round"/>
<path d="M598.371 659.372V722.254L633.351 702.059V639.177L598.371 659.372ZM601.799 720.272C601.799 720.272 601.799 693.444 615.861 685.32C629.924 677.195 629.924 704.023 629.924 704.023L601.789 720.263L601.799 720.272Z" fill="#F4F9F5" stroke="black" stroke-linejoin="round"/>
<path d="M566.816 740.467L580.879 732.352L566.816 740.467Z" fill="#F4F9F5" stroke="black" stroke-linejoin="round"/>
<path d="M615.859 655.49C601.797 663.615 601.797 685.644 601.797 685.644L629.931 669.405C629.931 669.405 629.931 647.375 615.869 655.49H615.859Z" fill="#F4F9F5" stroke="black" stroke-linejoin="round"/>
<path d="M650.844 635.295C636.781 643.42 636.781 665.449 636.781 665.449L664.915 649.209C664.915 649.209 664.915 627.18 650.853 635.295H650.844Z" fill="#F4F9F5" stroke="black" stroke-linejoin="round"/>
<path d="M650.844 603.855C636.781 611.979 636.781 634.008 636.781 634.008L664.915 617.769C664.915 617.769 664.915 595.74 650.853 603.855H650.844Z" fill="#F4F9F5" stroke="black" stroke-linejoin="round"/>
<path d="M528.279 596.481L476.096 566.467L581.323 505.983L633.506 535.989L528.279 596.481Z" fill="#48B54E" stroke="black" stroke-linejoin="round"/>
<g style="mix-blend-mode:multiply">
<path d="M536.024 585.559L529.873 585.392L559.962 560.871L569.374 566.3L536.024 585.559Z" fill="#DFEAE1"/>
</g>
<path d="M529.745 576.712L520.333 571.275L553.683 552.024L563.095 557.453L529.745 576.712Z" fill="#F4F9F5" stroke="black" stroke-linejoin="round"/>
<path d="M529.743 576.712V584.929L563.093 565.669V557.452L529.743 576.712Z" fill="#F4F9F5" stroke="black" stroke-linejoin="round"/>
<path d="M529.745 576.712V584.929L520.333 579.491V571.274L529.745 576.712Z" fill="#F4F9F5" stroke="black" stroke-linejoin="round"/>
<g style="mix-blend-mode:multiply">
<path d="M513.701 572.589L507.56 572.413L537.648 547.892L547.06 553.329L513.701 572.589Z" fill="#DFEAE1"/>
</g>
<path d="M507.558 563.79L498.146 558.361L531.495 539.102L540.907 544.539L507.558 563.79Z" fill="#F4F9F5" stroke="black" stroke-linejoin="round"/>
<path d="M507.56 563.789V572.006L540.909 552.756V544.539L507.56 563.789Z" fill="#F4F9F5" stroke="black" stroke-linejoin="round"/>
<path d="M507.558 563.789V572.006L498.146 566.577V558.36L507.558 563.789Z" fill="#F4F9F5" stroke="black" stroke-linejoin="round"/>
<g style="mix-blend-mode:multiply">
<path d="M585.066 557.258L578.924 557.092L609.003 532.57L618.415 537.999L585.066 557.258Z" fill="#DFEAE1"/>
</g>
<path d="M578.787 548.412L569.375 542.974L602.734 523.724L612.146 529.152L578.787 548.412Z" fill="#F4F9F5" stroke="black" stroke-linejoin="round"/>
<path d="M578.785 548.412V556.629L612.144 537.369V529.152L578.785 548.412Z" fill="#F4F9F5" stroke="black" stroke-linejoin="round"/>
<path d="M578.787 548.411V556.628L569.375 551.191V542.974L578.787 548.411Z" fill="#F4F9F5" stroke="black" stroke-linejoin="round"/>
<g style="mix-blend-mode:multiply">
<path d="M562.754 544.28L556.603 544.113L586.691 519.592L596.103 525.03L562.754 544.28Z" fill="#DFEAE1"/>
</g>
<path d="M556.603 535.488V543.705L589.961 524.455V516.229L556.603 535.488Z" fill="#F4F9F5" stroke="black" stroke-linejoin="round"/>
<path d="M556.6 535.488V543.705L547.188 538.277V530.06L556.6 535.488Z" fill="#F4F9F5" stroke="black" stroke-linejoin="round"/>
<path d="M475.885 660.4L456.672 671.23L509.049 701.578L528.272 690.749L475.885 660.4Z" fill="#F4F9F5" stroke="black" stroke-linejoin="round"/>
<path d="M523.751 724.737L528.077 722.236V690.804L523.751 693.296V724.737Z" fill="#F4F9F5" stroke="black" stroke-linejoin="round"/>
<path d="M523.75 724.737L519.434 722.236V695.723L523.75 693.296V724.737Z" fill="#F4F9F5" stroke="black" stroke-linejoin="round"/>
<path d="M475.883 696.797L480.209 694.296V684.865L475.883 682.364V696.797Z" fill="#F4F9F5" stroke="black" stroke-linejoin="round"/>
<path d="M475.883 696.797L471.566 694.296V679.863L475.883 682.364V696.797Z" fill="#F4F9F5" stroke="black" stroke-linejoin="round"/>
<path d="M509.065 733.074L513.382 730.582V699.15L509.065 701.642V733.074Z" fill="#F4F9F5" stroke="black" stroke-linejoin="round"/>
<path d="M509.067 733.074L504.741 730.582V699.076L509.067 701.642V733.074Z" fill="#F4F9F5" stroke="black" stroke-linejoin="round"/>
<path d="M460.988 705.117L465.314 702.625V676.241L460.988 673.685V705.117Z" fill="#F4F9F5" stroke="black" stroke-linejoin="round"/>
<path d="M460.989 705.116L456.672 702.624V671.192L460.989 673.684V705.116Z" fill="#F4F9F5" stroke="black" stroke-linejoin="round"/>
<path d="M508.438 710.202L456.672 679.863V671.229L508.438 701.578V710.202Z" fill="#F4F9F5" stroke="black" stroke-linejoin="round"/>
<path d="M508.438 710.202L528.411 699.076V690.451L508.438 701.577V710.202Z" fill="#F4F9F5" stroke="black" stroke-linejoin="round"/>
<path d="M613.146 569.255L648.08 549.254L633.462 538.879L598.537 558.879L613.146 569.255Z" fill="#F4F9F5" stroke="black" stroke-linejoin="round"/>
<g style="mix-blend-mode:multiply">
<path d="M624.523 592.886L651.184 577.61L633.453 567.337L598.621 587.615L598.473 587.532V587.708L598.371 619.297L563.493 639.168V670.609L528.513 690.804H542.14L555.924 698.696L569.699 690.804H597.722V681.836L584.781 651.498L584.596 651.386L619.353 631.238L605.902 591.83L614.138 587.078L624.523 592.886Z" fill="#DFEAE1"/>
</g>
<path d="M577.926 620.28L612.85 600.27L598.241 589.895L563.308 609.904L577.926 620.28Z" fill="#F4F9F5" stroke="black" stroke-linejoin="round"/>
<path d="M542.946 671.878L577.871 651.877L563.262 641.502L528.328 661.512L542.946 671.878Z" fill="#F4F9F5" stroke="black" stroke-linejoin="round"/>
<path d="M556.6 535.489L547.188 530.06L580.546 510.801L589.958 516.229L556.6 535.489Z" fill="#F4F9F5" stroke="black" stroke-linejoin="round"/>
<path d="M746.083 224.366C734.022 217.4 724.23 215.77 724.221 220.726C724.211 225.682 733.966 235.344 746.037 242.31C758.098 249.277 767.89 250.907 767.899 245.942C767.918 240.986 758.145 231.333 746.083 224.366Z" fill="#DFEAE1"/>
<path d="M760.649 74.3966C731.709 57.7126 708.197 71.3488 708.105 104.772C708.04 126.264 718.925 152.814 730.088 173.824C735.776 184.468 741.677 194.047 746.753 201.254C749.292 204.857 751.691 208.053 753.748 210.517C755.6 212.694 757.935 215.233 760.214 216.548H760.251L760.288 216.585C762.557 217.891 764.901 218.058 766.754 218.03C768.82 217.947 771.238 217.53 773.785 216.863C778.88 215.529 784.818 212.787 790.543 208.73C801.79 200.661 812.786 186.738 812.851 165.246C812.943 131.822 789.589 91.1268 760.649 74.3966Z" fill="#48B54E" stroke="black" stroke-linejoin="round"/>
<path d="M751.105 79.7052C722.165 63.0212 698.653 76.6574 698.561 110.081C698.496 131.573 709.381 158.122 720.544 179.132C726.232 189.776 732.133 199.355 737.209 206.562C739.748 210.166 742.147 213.362 744.204 215.826C746.056 218.003 748.391 220.541 750.67 221.857H750.707L750.744 221.894C753.013 223.2 755.357 223.367 757.21 223.339C759.276 223.256 761.694 222.839 764.241 222.172C769.336 220.838 775.274 218.096 780.999 214.038C792.246 205.969 803.242 192.046 803.307 170.554C803.399 137.131 780.045 96.4354 751.105 79.7052Z" fill="#F4F9F5" stroke="black" stroke-linejoin="round"/>
<path d="M750.983 121.289C742.228 116.24 735.114 120.288 735.086 130.349C735.058 140.409 742.126 152.637 750.881 157.695C759.635 162.754 766.74 158.687 766.768 148.645C766.796 138.594 759.728 126.347 750.983 121.298" fill="#48B54E"/>
<path d="M750.983 121.289C742.228 116.24 735.114 120.288 735.086 130.349C735.058 140.409 742.126 152.637 750.881 157.695C759.635 162.754 766.74 158.687 766.768 148.645C766.796 138.594 759.728 126.347 750.983 121.298" stroke="black" stroke-linejoin="round"/>
<path d="M388.892 308.713C396.155 304.516 402.047 303.534 402.056 306.517C402.065 309.5 396.183 315.318 388.92 319.514C381.657 323.711 375.765 324.693 375.756 321.701C375.747 318.709 381.629 312.9 388.892 308.704" fill="#DFEAE1"/>
<path d="M380.12 218.401C362.695 228.48 348.632 252.982 348.688 273.113C348.725 286.054 355.348 294.438 362.12 299.301C365.566 301.747 369.142 303.396 372.218 304.202C373.755 304.6 375.21 304.85 376.451 304.906C377.572 304.925 378.98 304.823 380.351 304.035L380.37 304.017H380.388C381.759 303.22 383.168 301.691 384.279 300.376C385.521 298.894 386.966 296.967 388.494 294.799C391.551 290.464 395.099 284.692 398.527 278.282C405.252 265.628 411.802 249.638 411.765 236.697C411.709 216.566 397.554 208.359 380.12 218.401Z" fill="#48B54E" stroke="black" stroke-linejoin="round"/>
<path d="M385.864 221.597C368.439 231.676 354.376 256.179 354.432 276.309C354.469 289.25 361.092 297.634 367.864 302.498C371.31 304.943 374.886 306.592 377.962 307.398C379.5 307.797 380.954 308.047 382.195 308.102C383.316 308.121 384.724 308.019 386.095 307.231L386.114 307.213H386.133C387.504 306.416 388.912 304.888 390.023 303.572C391.265 302.09 392.71 300.163 394.238 297.995C397.295 293.66 400.843 287.889 404.271 281.478C410.997 268.824 417.546 252.834 417.509 239.893C417.453 219.763 403.298 211.555 385.864 221.597Z" fill="#F4F9F5" stroke="black" stroke-linejoin="round"/>
<path d="M385.94 246.637C391.211 243.598 395.491 246.034 395.509 252.093C395.528 258.151 391.266 265.516 385.995 268.564C380.724 271.612 376.444 269.166 376.426 263.108C376.407 257.049 380.669 249.675 385.931 246.637" fill="#48B54E"/>
<path d="M385.94 246.637C391.211 243.598 395.491 246.034 395.509 252.093C395.528 258.151 391.266 265.516 385.995 268.564C380.724 271.612 376.444 269.166 376.426 263.108C376.407 257.049 380.669 249.675 385.931 246.637" stroke="black" stroke-linejoin="round"/>
<path d="M482.411 488.725V494.505" stroke="black" stroke-linejoin="round"/>
<g style="mix-blend-mode:multiply">
<path d="M592.567 385L526.526 346.87L512.232 355.18L537.086 369.529C543.358 373.151 545.674 378.209 544.062 382.878L504.191 359.858L489.897 368.167L532.177 392.577C522.459 395.903 509.693 395.171 501.319 390.335L499.568 389.326L478.011 376.875L467.237 383.138L464.912 449.243L485.191 449.521L486.978 398.617L487.025 398.645C503.375 408.085 529.008 408.872 546.841 401.044L551.529 405.926L555.947 406.306L570.241 397.997L559.903 392.021C561.848 389.807 563.229 387.464 564.025 385.074L573.873 392.939L578.292 393.318L592.586 385.009L592.567 385Z" fill="#DFEAE1"/>
</g>
<path d="M588.135 384.629V379.432L585.958 378.173L522.093 346.5L509.633 348.538L507.799 349.603V354.8L532.654 369.15C538.925 372.772 541.241 377.83 539.629 382.499L499.758 359.478L487.91 361.164L485.464 362.591V367.788L527.744 392.198C518.026 395.524 505.261 394.792 496.886 389.956L495.135 388.946L473.579 376.496L462.805 382.758L460.479 448.864L480.758 449.142L482.546 398.238L482.592 398.266C498.943 407.705 524.576 408.493 542.409 400.665L551.515 405.927L565.809 397.617V392.42L563.363 391.012L555.461 391.651C557.407 389.437 558.787 387.094 559.584 384.704L573.85 392.939L588.144 384.629H588.135Z" fill="#48B54E" stroke="black" stroke-linejoin="round"/>
<path d="M588.135 379.423L522.093 341.294L507.799 349.603L532.654 363.953C538.925 367.575 541.241 372.633 539.629 377.302L499.758 354.282L485.464 362.591L527.744 387.001C518.026 390.327 505.261 389.595 496.886 384.759L495.135 383.749L473.579 371.299L462.805 377.561L460.479 443.667L480.758 443.945L482.546 393.041L482.592 393.069C498.943 402.508 524.576 403.296 542.409 395.468L551.515 400.73L565.809 392.42L555.47 386.445C557.416 384.231 558.796 381.887 559.593 379.497L573.859 387.733L588.153 379.423H588.135Z" fill="white" stroke="black" stroke-linejoin="round"/>
<path d="M573.841 387.732V392.929" stroke="black" stroke-linejoin="round"/>
<path d="M551.496 400.721V405.918" stroke="black" stroke-linejoin="round"/>
</g>
<defs>
<radialGradient id="paint0_radial_4798_10968" cx="0" cy="0" r="1" gradientUnits="userSpaceOnUse" gradientTransform="translate(546.518 386) rotate(150.341) scale(498.346 705.573)">
<stop stop-color="#DFEAE1"/>
<stop offset="1" stop-color="#DFEAE1" stop-opacity="0"/>
</radialGradient>
<clipPath id="clip0_4798_10968">
<rect width="855" height="772" fill="white"/>
</clipPath>
</defs>
</svg>
